<?xml version="1.0" encoding="UTF-8" standalone="no"?>
<!-- Created with Inkscape (http://www.inkscape.org/) -->

<svg
   xmlns:dc="http://purl.org/dc/elements/1.1/"
   xmlns:cc="http://creativecommons.org/ns#"
   xmlns:rdf="http://www.w3.org/1999/02/22-rdf-syntax-ns#"
   xmlns:svg="http://www.w3.org/2000/svg"
   xmlns="http://www.w3.org/2000/svg"
   xmlns:sodipodi="http://sodipodi.sourceforge.net/DTD/sodipodi-0.dtd"
   xmlns:inkscape="http://www.inkscape.org/namespaces/inkscape"
   id="svg4770"
   height="17"
   viewBox="0 0 16 17"
   width="16"
   version="1.1"
   inkscape:version="0.91 r13725"
   sodipodi:docname="menu.svg">
  <sodipodi:namedview
     pagecolor="#ffffff"
     bordercolor="#666666"
     borderopacity="1"
     objecttolerance="10"
     gridtolerance="10"
     guidetolerance="10"
     inkscape:pageopacity="0"
     inkscape:pageshadow="2"
     inkscape:window-width="1920"
     inkscape:window-height="1005"
     id="namedview40"
     showgrid="false"
     inkscape:zoom="12.421053"
     inkscape:cx="-3.7838981"
     inkscape:cy="9.3389833"
     inkscape:window-x="0"
     inkscape:window-y="24"
     inkscape:window-maximized="1"
     inkscape:current-layer="svg4770" />
  <defs
     id="defs4772">
    <linearGradient
       id="linearGradient4747"
       y2="967.35999"
       gradientUnits="userSpaceOnUse"
       x2="6"
       gradientTransform="matrix(1.0833,0,0,1.0833,7.5,-1057.5)"
       y1="967.35999"
       x1="-6">
      <stop
         id="stop4668"
         style="stop-color:#191919;stop-opacity:.6"
         offset="0" />
      <stop
         id="stop4700"
         style="stop-color:#181818;stop-opacity:0"
         offset=".5" />
      <stop
         id="stop4670"
         style="stop-color:#fff;stop-opacity:.24314"
         offset="1" />
    </linearGradient>
  </defs>
  <metadata
     id="metadata4775">
    <rdf:RDF>
      <cc:Work
         rdf:about="">
        <dc:format>image/svg+xml</dc:format>
        <dc:type
           rdf:resource="http://purl.org/dc/dcmitype/StillImage" />
        <dc:title></dc:title>
      </cc:Work>
    </rdf:RDF>
  </metadata>
  <rect
     id="rect4745"
     style="color:#000000;opacity:0.1;fill:none"
     height="19"
     width="19"
     y="-2.0000145"
     x="-2e-06" />
  <g
     id="g4145"
     transform="translate(-1.500096,-1.00082)">
    <circle
       r="6.5"
       cx="7.4999857"
       cy="-9.5"
       transform="matrix(0,1,-1,0,0,0)"
       style="color:#000000;fill:url(#linearGradient4747)"
       id="circle4733" />
    <circle
       r="3.5"
       cy="8.4999857"
       cx="9.5"
       style="color:#000000;opacity:0.2"
       id="circle5388-4" />
    <circle
       r="3"
       cy="7.4999857"
       cx="9.5"
       style="color:#000000;fill:#cebba1;fill-opacity:1"
       id="circle4735" />
    <path
       inkscape:connector-curvature="0"
       d="M 9.5,1 A 6.5,6.5 0 0 0 3,7.5 6.5,6.5 0 0 0 3.023438,8.0293 6.5,6.5 0 0 1 9.500038,2 a 6.5,6.5 0 0 1 6.4766,5.9707 6.5,6.5 0 0 0 0.02344,-0.4707 6.5,6.5 0 0 0 -6.5,-6.5 z"
       style="color:#000000;opacity:0.1"
       id="path4737" />
    <path
       inkscape:connector-curvature="0"
       d="M 15.977,6.97 A 6.5,6.5 0 0 1 9.5004,12.9993 6.5,6.5 0 0 1 3.0238,7.0286 6.5,6.5 0 0 0 3.000362,7.4993 a 6.5,6.5 0 0 0 6.5,6.5 6.5,6.5 0 0 0 6.5,-6.5 6.5,6.5 0 0 0 -0.02344,-0.5293 z"
       style="color:#000000;opacity:0.07000002;fill:#ffffff"
       id="path4739" />
    <path
       inkscape:connector-curvature="0"
       d="M 15.99,7.2 A 6.5,6.5 0 0 1 9.4998,13.5008 6.5,6.5 0 0 1 3.0096,7.3016 6.5,6.5 0 0 0 2.99983,7.50082 a 6.5,6.5 0 0 0 6.5,6.5 6.5,6.5 0 0 0 6.5,-6.5 6.5,6.5 0 0 0 -0.0098,-0.30078 z"
       style="color:#000000;opacity:0.07000002;fill:#ffffff"
       id="path4741" />
    <path
       inkscape:connector-curvature="0"
       d="M 9.5,1 A 6.5,6.5 0 0 0 3,7.5 a 6.5,6.5 0 0 0 0.00977,0.30078 6.5,6.5 0 0 1 6.4902,-6.3008 6.5,6.5 0 0 1 6.4902,6.1992 6.5,6.5 0 0 0 0.0098,-0.19922 6.5,6.5 0 0 0 -6.5,-6.5 z"
       style="color:#000000;opacity:0.1"
       id="path4743" />
    <path
       inkscape:connector-curvature="0"
       d="M 9.5,4 C 7.5729,4 6,5.5729 6,7.5 6,9.4271 7.5729,11 9.5,11 11.4271,11 13,9.4271 13,7.5 13,5.5729 11.4271,4 9.5,4 Z m 0,1 C 10.8866,5 12,6.1134 12,7.5 12,8.8866 10.8866,10 9.5,10 8.1134,10 7,8.8866 7,7.5 7,6.1134 8.1134,5 9.5,5 Z"
       style="color:#000000;text-indent:0;text-transform:none;block-progression:tb;isolation:auto;mix-blend-mode:normal;fill:#6c6967;color-rendering:auto;image-rendering:auto;shape-rendering:auto"
       id="circle4632" />
  </g>
</svg>
