/* XPM */
static char * title_3_active_xpm[] = {
"8 22 4 1",
" 	c None",
".	c #000000",
"+	c #191919",
"@	c #0C0C0C",
"........",
"++++++++",
"@@@@@@@@",
"@@@@@@@@",
"@@@@@@@@",
"@@@@@@@@",
"@@@@@@@@",
"@@@@@@@@",
"@@@@@@@@",
"@@@@@@@@",
"@@@@@@@@",
"@@@@@@@@",
"@@@@@@@@",
"@@@@@@@@",
"@@@@@@@@",
"@@@@@@@@",
"@@@@@@@@",
"@@@@@@@@",
"@@@@@@@@",
"@@@@@@@@",
"++++++++",
"........"};
